<svg width="493" height="27" viewBox="0 0 493 27" fill="none" xmlns="http://www.w3.org/2000/svg">
<path d="M11.8042 5.40455C11.4403 4.78115 11.5567 4.37002 11.7575 3.94559C11.9373 3.56566 12.0107 2.9054 11.3755 2.38577C11.9604 2.15148 12.8834 2.56573 12.8993 3.32457C12.5599 3.83283 11.6327 4.0348 11.8042 5.40455V5.40455ZM16.0037 19.4136C15.7197 20.4153 15.8492 20.9483 14.6142 23.0282C16.7978 21.424 17.828 19.3527 18.168 17.0019C18.3815 17.9821 18.4017 18.8713 18.3178 19.7115C20.1273 17.1189 21.3672 11.8909 17.1969 6.63572C17.0292 8.95865 14.9649 10.7877 12.5842 10.0705C16.6661 9.58076 16.9278 3.93188 13.421 2.6275C13.4895 4.19905 11.5193 3.68443 12.0987 5.78683C10.0919 4.55119 5.70742 4.29724 3.96438 6.17189C3.06581 7.13831 2.45245 7.93757 1.32944 7.99037C0.402182 8.03396 -0.822237 9.67146 0.770855 10.5089C0.923015 11.2068 1.45774 11.6041 1.76779 11.6726C1.69068 12.9153 1.93358 12.2817 2.28951 11.7401C2.16992 13.3109 2.36701 12.745 2.92486 11.9368C7.64449 10.898 10.251 15.0868 10.2805 17.6596C10.2597 17.1928 9.57405 16.6499 9.21122 16.7995C8.96607 17.3647 8.69893 17.8445 8.36925 18.0812C8.40372 17.7064 8.38018 17.3317 8.31759 16.9569C8.20892 17.4101 8.00424 17.8807 7.67708 18.3735C7.02636 18.413 6.11562 17.8863 6.38054 17.0131C6.75425 16.1639 6.02124 15.9873 5.43071 16.2305C4.98698 16.4131 4.68713 16.9191 4.6461 17.0764C4.49809 17.6439 4.5468 18.9107 5.55923 19.7508C5.29382 19.804 5.02132 19.8514 4.83608 19.9701C6.55829 21.1036 8.31617 20.7206 9.29507 20.2929C10.8978 19.5925 12.0032 17.654 12.1762 16.1586C12.621 18.262 11.8241 20.5996 10.0376 21.8533C10.548 21.9121 11.5471 21.5358 12.5687 21.1394C11.7964 22.1971 10.8732 23.2002 9.36095 23.9895C12.3396 23.718 14.5184 22.0903 16.0037 19.4136Z" fill="#6B6B6B" fill-opacity="0.55"/>
<path d="M52.8929 10.6491C52.8614 11.7204 53.3566 12.1948 53.3689 12.4961C53.3631 12.5574 53.3437 12.6163 53.3125 12.6679C53.2813 12.7195 53.2391 12.7623 53.1895 12.7926L52.6295 13.2164C52.5571 13.2713 52.4716 13.3028 52.3832 13.3072C52.3644 13.3063 52.0249 13.3938 51.4872 12.0959C51.1592 12.5386 50.7418 12.8943 50.267 13.1357C49.7923 13.3771 49.2727 13.4979 48.7481 13.4888C48.0359 13.5309 46.1056 13.0518 46.2049 10.8303C46.1354 9.01975 47.695 7.89503 49.3081 7.99009C49.6187 7.99104 50.2531 8.00759 51.3639 8.28664V7.54787C51.4815 6.29639 50.7207 5.32539 49.4035 5.47106C49.2985 5.47153 48.5547 5.44741 47.398 5.94923C47.076 6.1091 47.0349 6.08261 46.9277 6.08261C46.6035 6.08261 46.7369 5.06667 46.7991 4.93803C47.027 4.63533 48.3679 4.07013 49.6839 4.07817C50.5638 3.99404 51.439 4.28762 52.1203 4.89546C52.3972 5.23036 52.6085 5.62247 52.7414 6.04811C52.8743 6.47375 52.9259 6.92409 52.8933 7.37192L52.8929 10.6491ZM49.1121 12.1811C50.5309 12.1588 51.1315 11.2366 51.2685 10.7399C51.3761 10.2646 51.3582 9.96379 51.3582 9.444C50.9351 9.33427 50.3261 9.21461 49.6274 9.21366C48.9646 9.15975 47.7541 9.47995 47.8014 10.7395C47.7471 11.5336 48.2878 12.2246 49.1121 12.1811ZM56.5897 13.2713C56.2458 13.3053 56.0857 13.0414 56.035 12.7808L53.8563 4.99336C53.8138 4.86188 53.7858 4.72614 53.7723 4.58756C53.7642 4.53042 53.7775 4.47218 53.8092 4.42562C53.8408 4.37906 53.8883 4.34799 53.9411 4.33925C53.9516 4.33736 53.8479 4.33925 54.9145 4.33925C55.2987 4.29763 55.4238 4.62445 55.4636 4.82972L57.0263 11.4905L58.4771 4.82972C58.5002 4.67742 58.6057 4.30614 59.037 4.3454H59.7878C59.8827 4.33688 60.2738 4.32175 60.3425 4.83586L61.8046 11.5818L63.4177 4.83586C63.4387 4.73276 63.5367 4.2981 63.9724 4.3454H64.8351C64.8723 4.33925 65.1042 4.30709 65.0648 4.7512C65.046 4.8387 65.214 4.24702 62.757 12.7869C62.7067 13.0476 62.5462 13.3115 62.2023 13.2774H61.3846C60.906 13.3318 60.8373 12.8205 60.8299 12.769L59.3792 6.28315L57.9451 12.7623C57.9381 12.8139 57.8694 13.3252 57.3903 13.2708H56.5897V13.2713ZM68.5543 13.5375C68.297 13.538 67.0703 13.5234 66.0448 12.9563C65.9427 12.9095 65.8556 12.831 65.7948 12.7307C65.734 12.6304 65.7021 12.5129 65.7031 12.393V11.8845C65.7031 11.4849 65.9744 11.5582 66.0894 11.6059C66.5287 11.798 66.8104 11.9436 67.3498 12.06C68.9533 12.4161 69.6585 11.9512 69.8313 11.8481C70.4066 11.4787 70.4521 10.6335 70.061 10.1951C69.6025 9.77934 69.3837 9.76373 67.7366 9.20184C67.5336 9.14083 65.8247 8.55813 65.8208 6.72538C65.7941 5.38971 66.9167 4.06824 68.8623 4.07911C69.4166 4.07864 70.8935 4.27445 71.2934 4.81789C71.3525 4.91674 71.3818 5.03309 71.3774 5.15086V5.62903C71.3774 5.83903 71.3065 5.94403 71.1643 5.94403C70.827 5.90336 70.2285 5.41572 69.0136 5.43559C68.7122 5.41856 67.2685 5.47863 67.3332 6.61659C67.3144 7.51334 68.4974 7.84962 68.6326 7.88841C70.2277 8.40725 70.761 8.49333 71.394 9.28745C72.1439 10.3398 71.7396 11.5719 71.5843 11.9096C70.7496 13.6827 68.591 13.5385 68.5543 13.5375ZM70.313 18.4971C67.2492 20.9433 62.8017 22.2454 59.0042 22.2454C53.8803 22.2819 48.9291 20.2451 45.1239 16.5352C44.8382 16.2566 45.0902 15.875 45.4376 16.0873C49.6587 18.6977 54.4379 20.0693 59.3009 20.0659C62.9324 20.0449 66.5243 19.2484 69.8702 17.7224C70.3856 17.4859 70.8227 18.0913 70.313 18.4971ZM71.59 16.9226C71.198 16.3777 68.9966 16.6681 68.0109 16.7954C67.7138 16.8318 67.6635 16.5532 67.9326 16.3475C69.6856 15.0151 72.5648 15.3968 72.8955 15.8447C73.2258 16.2926 72.8058 19.4113 71.1648 20.9012C70.9128 21.1315 70.6717 21.01 70.7837 20.7073C71.153 19.7022 71.982 17.4679 71.59 16.9226Z" fill="#6B6B6B" fill-opacity="0.55"/>
<path d="M101.454 11.1761L98.1975 13.2205C98.0834 13.2815 98 13.4368 98 13.5922V19.0766C98.0066 19.281 98.1608 19.3232 98.2837 19.2624L100.208 18.0528C100.322 17.9584 100.406 17.8365 100.406 17.6811V15.1096C100.406 14.9542 100.492 14.8293 100.603 14.7378L101.424 14.2107C101.603 14.1293 101.632 14.1312 101.819 14.2107L102.639 14.7378C102.753 14.7988 102.837 14.9542 102.837 15.1096V17.6811C102.837 17.8365 102.923 17.9614 103.034 18.0528L104.959 19.2624C105.083 19.3174 105.242 19.2837 105.243 19.0766L105.243 13.5922C105.243 13.4368 105.156 13.2815 105.045 13.2205L101.822 11.1761C101.671 11.0911 101.595 11.0953 101.454 11.1761ZM121.989 11.7976L121.168 11.301C121.054 11.2401 120.885 11.2401 120.773 11.301L117.55 13.3454C117.436 13.4064 117.352 13.5618 117.352 13.7172V17.8091C117.352 17.9645 117.439 18.0894 117.55 18.1808L120.773 20.2252C120.887 20.2862 121.057 20.2862 121.168 20.2252L124.392 18.1808C124.506 18.1199 124.589 17.9645 124.589 17.8091V7.61125C124.589 7.45586 124.503 7.30047 124.392 7.23954L122.47 6.06345C122.336 5.99973 122.184 6.05956 122.186 6.24931V11.6727C122.189 11.7619 122.118 11.8689 121.989 11.7976ZM122.158 16.4441C122.158 16.4746 122.131 16.505 122.103 16.5385L120.999 17.2515C120.971 17.282 120.943 17.282 120.912 17.2515L119.808 16.5385C119.78 16.5081 119.753 16.4776 119.753 16.4441V15.0486C119.753 15.0182 119.78 14.9877 119.808 14.9542L120.912 14.2412C120.94 14.2107 120.968 14.2107 120.999 14.2412L122.103 14.9542C122.131 14.9846 122.158 15.0151 122.158 15.0486V16.4441ZM134.01 14.9877C134.124 14.9268 134.207 14.7714 134.207 14.616V13.6257C134.207 13.4704 134.121 13.3454 134.01 13.254L130.814 11.2401C130.7 11.1791 130.53 11.1791 130.419 11.2401L127.195 13.2845C127.081 13.3454 126.998 13.5008 126.998 13.6562V17.7481C126.998 17.9035 127.084 18.0589 127.195 18.1199L130.391 20.1338C130.505 20.1948 130.647 20.1948 130.786 20.1338L132.738 18.9577C132.794 18.9273 132.853 18.8633 132.853 18.7719C132.853 18.711 132.825 18.6165 132.766 18.586L129.512 16.5416C129.457 16.5111 129.426 16.4167 129.426 16.3557V15.0791C129.426 15.0182 129.454 14.9237 129.512 14.8932L130.53 14.2412C130.586 14.2107 130.672 14.2107 130.728 14.2412L131.746 14.8932C131.801 14.9237 131.832 15.0182 131.832 15.0791V16.0693C131.832 16.1303 131.86 16.2247 131.918 16.2552C131.976 16.2857 132.06 16.2857 132.115 16.2552L134.01 14.9877ZM111.097 11.2065C111.211 11.1456 111.381 11.1456 111.492 11.2065L114.718 13.251C114.832 13.3119 114.916 13.4673 114.916 13.6227V17.7146C114.916 17.87 114.83 17.9949 114.718 18.0863L111.495 20.1308C111.381 20.1917 111.211 20.1917 111.1 20.1308L107.874 18.0863C107.76 18.0254 107.676 17.87 107.676 17.7146V13.6227C107.676 13.4673 107.762 13.3424 107.874 13.251L111.097 11.2065ZM139.978 20.0668L138.96 19.4148C138.818 19.3203 138.874 19.2899 138.932 19.2594C139.13 19.1984 139.188 19.1649 139.386 19.0431C139.414 19.0431 139.441 19.0431 139.472 19.0431L140.265 19.5397C140.293 19.5702 140.32 19.5702 140.351 19.5397L143.405 17.6171C143.433 17.5867 143.46 17.5562 143.46 17.5227V13.7172C143.46 13.6867 143.433 13.6562 143.405 13.6227L140.351 11.7001C140.323 11.6697 140.295 11.6697 140.265 11.7001L137.211 13.6227C137.183 13.6532 137.155 13.6836 137.155 13.7172V17.5592C137.155 17.5897 137.183 17.6202 137.211 17.6537L138.031 18.1808C138.485 18.4276 138.766 18.1503 138.766 17.8395V14.0279C138.766 13.967 138.793 13.9335 138.852 13.9335H139.247C139.302 13.9335 139.333 13.9639 139.333 14.0279V17.8395C139.333 18.4916 138.994 18.8938 138.429 18.8938C138.259 18.8938 138.118 18.8938 137.723 18.6774L136.93 18.1808C136.732 18.0559 136.618 17.8091 136.618 17.5623V13.7172C136.618 13.4704 136.732 13.2205 136.93 13.0986L139.984 11.1761C140.181 11.0512 140.437 11.0512 140.635 11.1761L143.688 13.0986C143.886 13.2236 144 13.4704 144 13.7172V17.5592C144 17.806 143.886 18.0559 143.688 18.1778L140.635 20.1003C140.331 20.1807 140.169 20.1909 139.978 20.0668ZM142.526 15.0761H142.131C142.103 15.0761 142.045 15.0456 142.045 15.0151C141.959 14.5489 141.733 14.3966 141.082 14.3966C140.376 14.3966 140.29 14.6769 140.29 14.8628C140.29 15.1096 140.376 15.1736 141.336 15.3289C142.27 15.4539 142.721 15.6702 142.721 16.3832C142.723 17.0961 142.187 17.5288 141.224 17.5288C139.895 17.5288 139.611 16.8463 139.611 16.2887C139.611 16.2278 139.639 16.1942 139.697 16.1942H140.092C140.148 16.1942 140.178 16.2247 140.178 16.2887C140.234 16.7214 140.404 16.9407 141.224 16.9407C141.875 16.9407 142.128 16.7853 142.128 16.4136C142.128 16.1973 142.042 16.0419 141.055 15.917C140.234 15.8225 139.697 15.6367 139.697 14.8932C139.697 14.2107 140.206 13.8086 141.082 13.8086C142.045 13.8086 142.554 14.1803 142.609 14.9846C142.613 15.0475 142.585 15.0775 142.526 15.0761ZM130.558 14.8018C130.586 14.8018 130.614 14.8018 130.644 14.8018L131.267 15.204C131.295 15.204 131.295 15.2345 131.295 15.265V16.0389C131.295 16.0693 131.267 16.0998 131.267 16.0998L130.644 16.502C130.616 16.502 130.589 16.502 130.558 16.502L129.935 16.0998C129.907 16.0998 129.907 16.0693 129.907 16.0389V15.265C129.907 15.2345 129.935 15.204 129.935 15.204L130.558 14.8018Z" fill="#6B6B6B" fill-opacity="0.55"/>
<path d="M177.513 0.712703C177.436 0.70297 176.2 1.18433 175.407 1.53358C174.331 2.00681 173.495 2.46118 172.979 2.85282C172.812 2.98037 172.607 3.19642 172.535 3.316C172.534 3.31387 172.533 3.31193 172.533 3.30979C172.533 3.30979 172.523 3.32626 172.514 3.35528C172.513 3.35649 172.512 3.35826 172.512 3.35942C172.508 3.37102 172.505 3.3835 172.502 3.3987C172.496 3.42684 172.493 3.45665 172.493 3.48762L172.498 3.49382C172.501 3.53571 172.509 3.5841 172.529 3.63649C172.573 3.75724 172.706 3.90259 172.853 4.05625C172.853 4.05625 174.4 5.68873 174.589 5.92548C175.446 6.99626 175.819 8.05144 175.853 9.50679C175.876 10.4407 175.709 11.2614 175.305 12.2156C174.581 13.9257 173.056 15.8108 170.699 17.908L170.728 17.8977C170.714 17.91 170.698 17.9251 170.684 17.937C170.403 18.1797 169.985 18.629 169.771 18.917C169.453 19.3456 169.204 19.8021 169.097 20.1536C168.905 20.7859 168.999 21.4255 169.37 22.0166C169.844 22.7716 170.786 23.5394 171.883 24.0615C172.443 24.3279 173.388 24.6702 174.097 24.8638C175.277 25.1865 177.557 25.5375 178.813 25.5896C179.068 25.6002 179.407 25.6008 179.423 25.5896C179.45 25.5699 179.646 25.1672 179.873 24.6653C180.645 22.9578 181.204 21.3573 181.504 19.9902C181.686 19.1624 181.827 18.0589 181.919 16.75C181.944 16.3834 181.954 15.16 181.934 14.7444C181.902 14.0681 181.848 13.5174 181.76 12.9764C181.754 12.9383 181.749 12.9028 181.747 12.8751C184.542 11.9756 187.633 11.1596 189.681 10.8198L190 10.7681L189.95 10.6854C189.672 10.2166 189.482 9.92696 189.253 9.62053C188.585 8.72529 187.775 7.99414 186.783 7.39268C185.422 6.5673 183.655 5.92601 181.422 5.44524C181 5.35457 180.08 5.18544 179.329 5.05857L179.254 4.91383C178.844 4.12968 178.391 3.15946 178.127 2.50282C177.924 1.99431 177.728 1.40933 177.62 0.985068C177.555 0.733109 177.548 0.716654 177.513 0.712128L177.513 0.712703ZM177.454 0.905006C177.457 0.904407 177.459 0.904384 177.46 0.905006C177.462 0.908166 177.476 1.01361 177.49 1.13866C177.55 1.6653 177.658 2.17696 177.828 2.72668C177.956 3.14093 177.958 3.11608 177.805 3.06992C177.45 2.96261 175.861 2.66765 174.71 2.49509C174.524 2.46728 174.368 2.44192 174.366 2.43926C174.351 2.42344 175.197 1.94346 175.571 1.75482C176.051 1.51291 177.359 0.923496 177.454 0.904969L177.454 0.905006ZM174.1 2.59228L174.236 2.6419C174.975 2.91423 176.827 3.29837 177.851 3.39039C177.967 3.40077 178.062 3.41022 178.065 3.41313C178.068 3.41605 177.97 3.47279 177.847 3.53926C177.353 3.80712 176.81 4.13428 176.434 4.38912C176.345 4.44948 176.266 4.49841 176.23 4.51524C176.117 4.49446 176.003 4.47223 175.89 4.45114L175.559 4.10377C174.945 3.46082 174.464 2.96443 174.279 2.77638L174.1 2.59236L174.1 2.59228ZM173.965 2.71013L174.454 3.37181C174.723 3.73565 174.993 4.09641 175.053 4.17409C175.109 4.24653 175.149 4.30474 175.153 4.31469C174.805 4.24938 174.435 4.17703 174.148 4.10998C174.129 4.10539 174.1 4.09893 174.078 4.09344C174.061 4.08944 174.051 4.08693 174.036 4.0831C173.99 4.0718 173.942 4.05991 173.888 4.04589C173.828 4.03038 173.774 4.01607 173.724 4.00246C173.643 3.97973 173.559 3.95419 173.476 3.92802C173.475 3.92761 173.473 3.92637 173.472 3.92596C173.424 3.9109 173.377 3.89634 173.331 3.88047C173.324 3.87799 173.317 3.87681 173.31 3.87426C173.282 3.86443 173.255 3.85331 173.228 3.84325C173.194 3.82889 173.156 3.81268 173.119 3.79786V3.7565C173.121 3.5024 173.417 3.12676 173.919 2.74335L173.965 2.71026L173.965 2.71013ZM178.132 3.61166C178.146 3.61289 178.161 3.64526 178.204 3.74813C178.323 4.02966 178.694 4.79365 178.783 4.9412C178.79 4.95335 178.797 4.96228 178.798 4.96808C178.043 4.83962 177.4 4.72683 176.81 4.6207C176.813 4.61433 176.845 4.5918 176.887 4.56694C177.252 4.34719 177.621 4.07006 177.948 3.77088C178.027 3.69935 178.101 3.63241 178.115 3.61994C178.12 3.61481 178.127 3.61126 178.132 3.61167L178.132 3.61166ZM173.428 4.25064C173.43 4.24852 173.489 4.26804 173.56 4.29407C173.691 4.34204 173.862 4.39883 174.062 4.45948C174.203 4.50198 174.359 4.54644 174.522 4.59182C174.732 4.64974 174.904 4.70078 174.906 4.70348C174.929 4.73168 175.281 5.94551 175.401 6.41139C175.447 6.58924 175.481 6.73661 175.477 6.74016C175.474 6.74371 175.435 6.67856 175.391 6.59542C174.985 5.82126 174.341 5.03519 173.596 4.40157C173.503 4.3226 173.428 4.25362 173.428 4.25063V4.25064ZM175.141 4.76344C175.159 4.7621 175.236 4.77656 175.328 4.79859C175.921 4.94056 176.981 5.16259 177.662 5.28658C177.775 5.30724 177.868 5.32944 177.868 5.3362C177.868 5.34297 177.826 5.37222 177.775 5.4003C177.66 5.46252 177.198 5.76174 177.043 5.87381C176.657 6.15359 176.311 6.45344 176.058 6.72572C175.956 6.83513 175.872 6.92422 175.869 6.92422C175.866 6.92422 175.848 6.8597 175.829 6.78155C175.702 6.25703 175.44 5.48222 175.206 4.93713C175.168 4.84941 175.137 4.77231 175.137 4.76551C175.137 4.76465 175.139 4.76362 175.141 4.76344L175.141 4.76344ZM178.157 5.38376C178.176 5.39092 178.212 5.51872 178.279 5.80351C178.406 6.34884 178.467 6.96144 178.447 7.52797C178.441 7.68564 178.431 7.83107 178.426 7.8526L178.414 7.89189L178.235 7.82986C177.865 7.70149 177.259 7.50762 176.74 7.35213C176.445 7.26375 176.204 7.1862 176.204 7.17844C176.204 7.15509 176.633 6.68763 176.818 6.51054C177.172 6.17232 178.123 5.37147 178.157 5.38365L178.157 5.38376ZM178.395 5.42098C178.406 5.41017 179.835 5.67921 180.484 5.81385C180.969 5.91421 181.67 6.07183 181.712 6.09093C181.733 6.10015 181.66 6.14484 181.428 6.25841C180.508 6.70765 179.825 7.10734 179.148 7.5983C178.969 7.72762 178.822 7.83402 178.819 7.83402C178.816 7.83402 178.814 7.72591 178.814 7.59416C178.813 6.87876 178.681 6.15721 178.439 5.54708C178.413 5.48142 178.393 5.42357 178.395 5.42095L178.395 5.42098ZM182.092 6.21294C182.103 6.22493 182.057 6.53097 182.016 6.71126C181.889 7.2724 181.553 8.10574 181.139 8.88857C181.067 9.02652 181.002 9.14041 180.994 9.1429C180.987 9.14539 180.893 9.09295 180.786 9.02504C180.382 8.7689 179.924 8.52588 179.421 8.3013C179.28 8.23869 179.159 8.18344 179.153 8.17724C179.13 8.15394 180.249 7.35259 180.841 6.96763C181.315 6.6597 182.079 6.1985 182.092 6.21292L182.092 6.21294ZM182.356 6.25843C182.388 6.25843 183.021 6.44589 183.349 6.55205C184.165 6.81646 185.108 7.18826 185.719 7.48871L185.973 7.61278L185.795 7.65827C184.3 8.03016 183.017 8.45982 181.783 9.00226C181.68 9.04733 181.593 9.08497 181.586 9.08497C181.58 9.08497 181.611 8.99762 181.657 8.89267C182.028 8.03918 182.269 7.14499 182.331 6.38453C182.337 6.31531 182.348 6.2584 182.356 6.2584L182.356 6.25843ZM176.054 7.8258C176.064 7.81497 176.547 7.9381 176.811 8.0181C177.206 8.13835 178.047 8.44342 178.048 8.46679C178.048 8.47134 177.955 8.55853 177.842 8.66116C177.387 9.07342 176.949 9.50493 176.423 10.0548C176.267 10.2178 176.133 10.3505 176.127 10.3505C176.12 10.3505 176.118 10.3257 176.121 10.2967C176.2 9.66374 176.184 8.85161 176.073 8.02425C176.059 7.91938 176.051 7.8295 176.054 7.82575L176.054 7.8258ZM186.215 7.83614C186.223 7.84398 185.991 8.2354 185.847 8.45853C185.637 8.78409 185.333 9.21237 184.64 10.1561C184.276 10.6518 183.866 11.2131 183.727 11.403C183.589 11.5928 183.473 11.7483 183.469 11.7483C183.466 11.7483 183.421 11.68 183.37 11.5974C182.979 10.9653 182.516 10.4106 181.963 9.91213C181.859 9.81912 181.744 9.71595 181.705 9.68468C181.666 9.65342 181.634 9.62505 181.634 9.62058C181.634 9.61028 182.224 9.33541 182.675 9.13673C183.46 8.79086 184.532 8.37766 185.335 8.11114C185.758 7.97059 186.209 7.82916 186.215 7.83613L186.215 7.83614ZM186.481 7.91264C186.494 7.90985 186.578 7.95331 186.68 8.01603C187.525 8.5405 188.354 9.21531 189.005 9.90802C189.191 10.1051 189.644 10.6151 189.638 10.6193C189.636 10.6204 189.48 10.6328 189.29 10.6483C187.825 10.7676 185.951 11.105 184.147 11.5746C184.025 11.6065 183.919 11.6346 183.912 11.6346C183.906 11.6346 184.04 11.4875 184.21 11.3099C185.27 10.2074 185.752 9.51211 186.32 8.2683C186.405 8.08305 186.478 7.92239 186.481 7.91265L186.481 7.91264ZM178.737 8.77282C178.786 8.78458 179.237 9.01187 179.577 9.1967C179.889 9.36573 180.362 9.63801 180.385 9.66194C180.388 9.66494 180.221 9.7589 180.015 9.87078C179.361 10.225 178.803 10.5592 178.218 10.946C178.051 11.0563 177.911 11.1466 177.907 11.1466C177.892 11.1466 177.897 11.1331 177.991 10.9481C178.302 10.3306 178.553 9.59249 178.697 8.87206C178.71 8.80776 178.726 8.77016 178.737 8.77281L178.737 8.77282ZM178.283 8.85967C178.292 8.86988 178.174 9.33647 178.099 9.58546C177.957 10.063 177.716 10.6638 177.485 11.1156C177.43 11.2217 177.348 11.377 177.301 11.4609L177.215 11.6118L177.019 11.4092C176.792 11.1712 176.607 11.0216 176.371 10.8902C176.278 10.8386 176.203 10.7918 176.203 10.7847C176.203 10.7537 176.797 10.1684 177.255 9.74882C177.583 9.4485 178.274 8.85059 178.283 8.85966V8.85967ZM181.048 10.092L181.218 10.2099C181.607 10.4835 182.068 10.8523 182.419 11.1693C182.616 11.347 182.997 11.7183 183.076 11.8082L183.12 11.8558L182.837 11.9406C181.243 12.4194 180.012 12.8473 178.575 13.419C178.415 13.4825 178.279 13.5348 178.269 13.5348C178.25 13.5348 178.23 13.5529 178.588 13.1957C179.507 12.28 180.319 11.2721 180.926 10.2906L181.048 10.0921L181.048 10.092ZM180.32 10.2885C180.329 10.2975 179.849 11.0256 179.564 11.4361C179.223 11.9272 178.616 12.7481 178.199 13.2825C178.024 13.5059 177.876 13.6911 177.868 13.694C177.859 13.6973 177.853 13.642 177.853 13.5555C177.852 13.0995 177.745 12.6117 177.557 12.1991C177.478 12.0247 177.464 11.9836 177.481 11.9675C177.546 11.9031 178.56 11.2756 179.199 10.9047C179.638 10.6499 180.312 10.2795 180.32 10.2885V10.2885ZM175.927 11.4537C175.936 11.4537 176.016 11.4986 176.107 11.5529C176.329 11.686 176.529 11.8324 176.704 11.9913C176.711 11.9974 176.62 12.0768 176.502 12.1691C176.172 12.4267 175.67 12.8387 175.379 13.0892C175.072 13.3535 175.062 13.3615 175.097 13.3043C175.326 12.9237 175.442 12.7069 175.562 12.4317C175.67 12.187 175.776 11.8965 175.853 11.6439C175.884 11.5389 175.919 11.4536 175.927 11.4536V11.4537ZM177.098 12.4482C177.114 12.4461 177.135 12.4779 177.23 12.6302C177.428 12.9512 177.58 13.3797 177.619 13.7282L177.627 13.8026L177.151 14.0032C176.298 14.3618 175.513 14.716 174.982 14.9792C174.833 15.0528 174.571 15.1883 174.399 15.2811C174.228 15.3738 174.09 15.4463 174.09 15.4423C174.09 15.4383 174.197 15.3512 174.329 15.248C175.37 14.4292 176.268 13.5326 176.945 12.6364C177.017 12.5406 177.082 12.4558 177.09 12.4503C177.092 12.4488 177.096 12.4485 177.098 12.4482H177.098ZM176.557 12.593C176.571 12.6079 176.172 13.0969 175.904 13.3932C175.233 14.1348 174.569 14.715 173.744 15.281C173.641 15.3519 173.547 15.4159 173.534 15.4237C173.512 15.438 173.541 15.4019 173.903 14.975C174.131 14.706 174.306 14.4825 174.504 14.2038C174.635 14.0202 174.659 13.9955 174.85 13.8461C175.365 13.4436 176.544 12.5781 176.557 12.593L176.557 12.593ZM181.223 13.0438C181.272 13.2604 181.363 14.2374 181.389 14.8861C181.395 15.0419 181.394 15.1425 181.385 15.1425C181.358 15.1425 180.794 14.7849 180.396 14.5139C180.052 14.28 179.406 13.8147 179.29 13.7179C179.898 13.4939 180.549 13.2661 181.223 13.0438H181.223ZM178.922 13.8543C178.969 13.8797 179.042 13.9276 179.162 14.0094C179.88 14.4965 180.854 15.082 181.27 15.279C181.4 15.3401 181.415 15.3166 181.118 15.5354C180.483 16.0018 179.693 16.4612 178.725 16.927C178.556 17.0081 178.414 17.0738 178.408 17.0738C178.402 17.0738 178.421 16.9809 178.45 16.867C178.684 15.9275 178.817 14.9788 178.82 14.2183C178.821 14.0319 178.822 13.9385 178.826 13.8895C178.857 13.8776 178.89 13.8663 178.922 13.8543L178.922 13.8543ZM178.383 14.0611C178.396 14.2117 178.381 14.9183 178.358 15.126C178.297 15.677 178.198 16.1863 178.039 16.7657C178.001 16.9041 177.965 17.0232 177.959 17.0303C177.945 17.0477 177.47 16.5467 177.312 16.348C177.041 16.0084 176.828 15.6713 176.672 15.339C176.605 15.1965 176.506 14.9385 176.483 14.8551C176.976 14.6382 177.489 14.4224 178.026 14.2038C178.141 14.1571 178.263 14.1083 178.383 14.0611L178.383 14.0611ZM176.12 15.0192C176.129 15.038 176.148 15.0854 176.167 15.1432C176.278 15.4693 176.528 15.952 176.744 16.2619C176.98 16.6002 177.288 16.9612 177.546 17.2007C177.629 17.2775 177.707 17.3492 177.718 17.3599C177.74 17.3811 177.747 17.3769 177.179 17.6101C176.522 17.8802 175.804 18.1513 174.981 18.4392C174.668 18.5489 174.404 18.6418 174.393 18.646C174.362 18.6586 174.372 18.6375 174.464 18.4826C174.873 17.7917 175.491 16.4404 175.837 15.4844C175.897 15.3186 175.955 15.1535 175.965 15.1164C175.968 15.1035 175.972 15.0927 175.976 15.0833C176.024 15.0618 176.072 15.0407 176.12 15.0192L176.12 15.0192ZM175.396 15.352C175.356 15.4593 175.21 15.787 175.066 16.0923C174.729 16.8035 174.357 17.5044 173.865 18.3585C173.78 18.5059 173.701 18.6396 173.691 18.6563C173.673 18.6838 173.666 18.6753 173.612 18.5591C173.494 18.305 173.396 17.9846 173.345 17.6865C173.295 17.3914 173.303 16.8805 173.364 16.5637C173.389 16.4369 173.401 16.381 173.421 16.3466C174.044 16.0098 174.699 15.6797 175.396 15.352H175.396ZM181.41 15.5774V15.7366C181.409 16.5773 181.325 17.7296 181.205 18.5694C181.184 18.7167 181.166 18.8387 181.165 18.8402C181.164 18.8417 181.066 18.8097 180.947 18.7699C180.425 18.5943 179.858 18.3329 179.347 18.0296C179.009 17.8289 178.52 17.5028 178.534 17.4879C178.537 17.4839 178.68 17.4008 178.853 17.3039C179.536 16.9199 180.189 16.507 180.756 16.0963C180.969 15.9422 181.287 15.6921 181.358 15.6249L181.41 15.5773L181.41 15.5774ZM172.786 16.6981C172.79 16.7125 172.783 16.7554 172.767 16.8594C172.751 16.9559 172.735 17.1369 172.729 17.2626C172.701 17.8137 172.783 18.2199 173.036 18.7762C173.106 18.9309 173.161 19.061 173.158 19.0636C173.133 19.0866 170.832 19.8148 170.109 20.0293C169.894 20.0928 169.706 20.1504 169.69 20.1554C169.665 20.1636 169.664 20.1571 169.673 20.0934C169.752 19.5405 170.141 18.8146 170.685 18.2055C170.992 17.8624 171.247 17.6366 171.617 17.3909C171.792 17.2819 171.998 17.1578 172.282 16.9897C172.447 16.8917 172.616 16.7947 172.786 16.6982L172.786 16.6981ZM178.207 17.7436C178.209 17.7407 178.294 17.7894 178.396 17.8532C179.139 18.3187 180.177 18.7548 181.062 18.9739L181.142 18.9946L181.031 19.0607C180.569 19.3383 179.049 20.0238 177.495 20.655C177.268 20.7471 177.047 20.837 177.004 20.8556C176.96 20.8741 176.924 20.8882 176.924 20.8845C176.924 20.8808 176.988 20.7459 177.067 20.5867C177.503 19.7035 177.939 18.631 178.163 17.8863C178.186 17.8104 178.205 17.7465 178.207 17.7437L178.207 17.7436ZM177.653 17.94C177.655 17.9426 177.629 18.0204 177.594 18.1137C177.291 18.9078 176.894 19.7749 176.387 20.748C176.258 20.9956 176.149 21.1971 176.144 21.1967C176.14 21.1963 176.035 21.13 175.911 21.0478C175.173 20.5586 174.52 19.9565 174.092 19.3708L174.03 19.2881L174.349 19.193C175.484 18.8563 176.446 18.4961 177.403 18.0496C177.538 17.9863 177.651 17.9374 177.653 17.94L177.653 17.94ZM181.092 19.2385C181.094 19.2389 181.094 19.2411 181.094 19.2427C181.094 19.3264 180.918 20.1001 180.771 20.6612C180.649 21.1318 180.546 21.5018 180.355 22.154C180.271 22.4421 180.199 22.6763 180.195 22.6751C180.19 22.6739 180.17 22.6688 180.149 22.6648C179.115 22.4622 178.19 22.18 177.323 21.8025C177.08 21.697 176.728 21.5286 176.71 21.5089C176.703 21.5023 176.914 21.397 177.176 21.2732C178.76 20.5247 180.401 19.6723 180.962 19.3068C181.03 19.2628 181.081 19.236 181.092 19.2386L181.092 19.2385ZM173.155 19.5322C173.164 19.5409 172.72 20.2298 172.101 21.1678C171.886 21.4938 171.633 21.8761 171.54 22.0197C171.446 22.1633 171.305 22.3918 171.225 22.5263L171.08 22.7702L170.923 22.6276C170.74 22.4613 170.421 22.1102 170.276 21.9142C169.977 21.511 169.773 21.0861 169.693 20.6963C169.656 20.5164 169.656 20.4245 169.691 20.4131C169.742 20.3965 170.67 20.1605 171.542 19.9416C172.026 19.8201 172.586 19.6776 172.787 19.6253C172.987 19.573 173.153 19.5302 173.155 19.5322L173.155 19.5322ZM173.6 19.7183L173.713 19.8527C174.214 20.4574 174.724 20.9088 175.346 21.298C175.456 21.3667 175.54 21.4276 175.533 21.4324C175.507 21.4497 173.382 22.2671 172.399 22.6379C171.845 22.847 171.39 23.0167 171.387 23.0163C171.385 23.0159 171.354 22.9937 171.318 22.9667L171.254 22.9171L171.355 22.762C171.681 22.2505 172.091 21.6868 172.988 20.5182L173.601 19.7183L173.6 19.7183ZM176.379 21.8666C176.381 21.8633 176.537 21.9229 176.725 21.999C177.178 22.1825 177.534 22.3028 178.016 22.4332C178.607 22.5934 179.459 22.753 179.965 22.7992C180.043 22.8063 180.083 22.8155 180.07 22.824C180.047 22.8401 179.536 23.0267 179.159 23.1548C178.562 23.3583 176.734 23.9417 175.245 24.4058C174.968 24.4919 174.732 24.5643 174.72 24.5671C174.686 24.5746 174.569 24.5427 174.569 24.5257C174.569 24.5177 174.652 24.4028 174.754 24.2714C175.255 23.6229 175.752 22.899 176.167 22.214C176.281 22.0266 176.377 21.8699 176.379 21.8666L176.379 21.8666ZM175.764 21.8853C175.769 21.8901 175.52 22.3193 175.086 23.0597C174.903 23.3724 174.695 23.7273 174.624 23.8496C174.553 23.972 174.449 24.1575 174.393 24.2632L174.292 24.4555L174.238 24.441C174.114 24.4044 173.235 24.0674 173.003 23.9675C172.715 23.8437 172.414 23.6938 172.193 23.5643C171.916 23.4024 171.564 23.1623 171.591 23.1528C171.599 23.1501 172.076 23.0098 172.649 22.8406C174.175 22.3904 175.018 22.1322 175.571 21.9453C175.675 21.9103 175.762 21.8832 175.764 21.8853L175.764 21.8853ZM180.095 22.9853C180.098 22.9845 180.101 22.9845 180.101 22.9853C180.115 23.0244 179.549 24.7189 179.343 25.2556C179.297 25.3759 179.281 25.4036 179.257 25.4024C179.198 25.3997 178.379 25.2771 177.884 25.1957C177.017 25.0534 175.564 24.7782 175.197 24.6875L175.112 24.6668L175.633 24.5407C176.747 24.2688 177.282 24.1231 177.825 23.9431C178.51 23.7162 179.187 23.4318 179.872 23.0871C179.981 23.0326 180.073 22.9911 180.096 22.9857L180.095 22.9853Z" fill="#6B6B6B" fill-opacity="0.55"/>
<path d="M234 4.30133L224.5 22.0086L215 4.30133H216.544L224.5 19.131L232.456 4.30133H234ZM224.5 8.32807L222.304 4.30133H218.973L224.5 14.6039L230.027 4.30133H226.696L224.5 8.32807Z" fill="#6B6B6B" fill-opacity="0.55"/>
<path d="M259 23.9685V17.3442C259 16.7006 259.239 16.3919 259.728 16.2248C260.921 15.839 261.72 16.1736 262.067 17.0351L264.357 22.7466L266.732 17.0351C267.09 16.1734 267.877 15.839 269.059 16.2248C269.56 16.3921 269.799 16.7006 269.799 17.3442V23.9685H268.235V17.3442L265.825 23.1198C265.539 23.8141 265.169 24.0715 264.405 24.0715C263.642 24.0715 263.248 23.8141 262.973 23.1198L260.551 17.3442V23.9685L259 23.9685ZM271.087 18.579C271.123 18.6043 271.087 22.2578 271.087 22.3349C271.099 23.1711 272.089 23.9043 273.629 23.9172H276.934V24.3548C276.934 24.535 277.053 25.075 276.051 25.1909C276.039 25.1909 271.135 25.1909 271.123 25.1909V26.3099H276.039C276.826 26.2969 278.509 25.9753 278.509 24.5091C278.509 24.4832 278.509 18.5532 278.509 18.5532H276.946V22.901C276.922 22.901 273.998 22.9139 273.557 22.901C272.71 22.8887 272.638 22.4251 272.65 22.2197V18.5791L271.087 18.579ZM304.616 14.3598C303.661 14.3338 302.922 14.4367 302.301 14.7198C302.122 14.7971 301.836 14.7971 301.812 15.0409C301.907 15.1439 301.919 15.3113 302.003 15.4531C302.146 15.7097 302.397 16.0574 302.623 16.2374C302.874 16.4435 303.124 16.6491 303.387 16.8291C303.852 17.1378 304.377 17.318 304.831 17.6265C305.093 17.8067 305.356 18.0382 305.618 18.2312C305.75 18.3342 305.833 18.5016 306 18.5658C306 18.5528 306 18.5398 306 18.5269C305.916 18.4115 305.893 18.2443 305.809 18.1152C305.69 17.9868 305.57 17.8708 305.451 17.7423C305.105 17.2406 304.676 16.8031 304.21 16.4433C303.828 16.1601 302.993 15.7743 302.838 15.298C302.838 15.298 302.826 15.2856 302.814 15.2727C303.076 15.2468 303.387 15.1439 303.638 15.0666C304.043 14.9512 304.413 14.9766 304.831 14.8611C305.022 14.8093 305.213 14.7451 305.404 14.6808C305.404 14.6419 305.404 14.6037 305.404 14.5649C305.189 14.3334 305.033 14.0249 304.807 13.8061C304.198 13.2399 303.53 12.687 302.838 12.224C302.468 11.9666 301.991 11.7994 301.597 11.5807C301.454 11.5035 301.215 11.4649 301.132 11.3364C300.917 11.0532 300.798 10.6803 300.643 10.3459C300.297 9.63836 299.963 8.85369 299.664 8.10763C299.449 7.60602 299.318 7.10434 299.056 6.64122C297.827 4.4544 296.49 3.12956 294.438 1.83023C293.997 1.56021 293.472 1.44435 292.911 1.30285C292.613 1.29006 292.314 1.2643 292.016 1.25132C291.825 1.16142 291.634 0.917035 291.467 0.801177C290.787 0.338184 289.033 -0.665104 288.532 0.659678C288.21 1.49589 289.009 2.31918 289.283 2.74368C289.486 3.03953 289.749 3.37381 289.892 3.70841C289.975 3.92702 289.999 4.15861 290.083 4.39014C290.274 4.95608 290.453 5.58628 290.703 6.11378C290.835 6.38399 290.978 6.66687 291.145 6.91125C291.24 7.05275 291.407 7.11707 291.443 7.34866C291.276 7.60595 291.264 7.9919 291.169 8.31339C290.739 9.76695 290.906 11.5678 291.515 12.6354C291.706 12.9572 292.159 13.6644 292.768 13.3945C293.305 13.1628 293.185 12.4298 293.34 11.7866C293.376 11.6322 293.352 11.5293 293.424 11.4264C293.424 11.4393 293.424 11.4522 293.424 11.4522C293.591 11.8124 293.758 12.1597 293.913 12.5198C294.283 13.15 294.927 13.8063 295.464 14.2435C295.751 14.4751 295.977 14.8739 296.335 15.0154C296.335 15.0024 296.335 14.9895 296.335 14.9765C296.323 14.9765 296.323 14.9765 296.311 14.9765C296.24 14.8611 296.132 14.8093 296.037 14.7194C295.822 14.4878 295.583 14.2048 295.417 13.9479C294.915 13.2273 294.474 12.4299 294.08 11.6066C293.889 11.2078 293.722 10.7705 293.567 10.3718C293.496 10.2174 293.496 9.98575 293.376 9.90863C293.197 10.1916 292.935 10.436 292.803 10.7834C292.577 11.3365 292.553 12.0183 292.469 12.7257C292.422 12.7386 292.445 12.7257 292.422 12.7514C292.04 12.6485 291.908 12.224 291.765 11.8639C291.407 10.9505 291.348 9.48395 291.658 8.42931C291.741 8.15916 292.099 7.31017 291.956 7.05287C291.885 6.80849 291.646 6.66693 291.515 6.47402C291.36 6.22964 291.193 5.92106 291.085 5.65079C290.799 4.93056 290.656 4.13297 290.345 3.41243C290.202 3.07809 289.952 2.73083 289.749 2.42206C289.522 2.0748 289.271 1.83023 289.092 1.41865C289.033 1.27715 288.949 1.04568 289.045 0.89133C289.068 0.78845 289.116 0.749831 289.212 0.724064C289.367 0.582564 289.808 0.762683 289.963 0.839796C290.405 1.03277 290.775 1.21282 291.145 1.48297C291.312 1.61162 291.491 1.856 291.705 1.92032C291.789 1.92032 291.873 1.92032 291.956 1.92032C292.338 2.01041 292.767 1.94615 293.125 2.06182C293.758 2.28062 294.331 2.60218 294.844 2.94938C296.407 4.01705 297.695 5.53499 298.566 7.34878C298.709 7.6447 298.769 7.91478 298.9 8.22355C299.151 8.85381 299.461 9.49699 299.712 10.1145C299.962 10.7191 300.201 11.3365 300.559 11.8382C300.738 12.1082 301.454 12.2497 301.776 12.3913C302.015 12.507 302.385 12.61 302.599 12.7514C303.005 13.0216 303.411 13.3301 303.793 13.6263C303.983 13.7808 304.58 14.1024 304.616 14.3598ZM292.445 3.18134C292.242 3.18134 292.099 3.20705 291.956 3.24567C291.956 3.24567 291.956 3.25846 291.956 3.27143C291.968 3.27143 291.968 3.27143 291.98 3.27143C292.075 3.47726 292.242 3.61869 292.362 3.79881C292.457 4.00464 292.541 4.21046 292.636 4.41622C292.648 4.40337 292.66 4.39058 292.66 4.39058C292.827 4.26193 292.911 4.05592 292.911 3.7474C292.839 3.65731 292.827 3.56722 292.767 3.47719C292.696 3.34855 292.541 3.28422 292.445 3.18134ZM279.702 23.9685H284.188C284.713 23.9685 285.214 23.853 285.62 23.647C286.3 23.3124 286.622 22.8625 286.622 22.2706V21.0358C286.622 20.5599 286.252 20.1095 285.513 19.8009C285.131 19.6465 284.654 19.5565 284.188 19.5565H282.303C281.671 19.5565 281.372 19.3504 281.289 18.9005C281.277 18.8488 281.277 18.7975 281.277 18.7461V17.9872C281.277 17.9482 281.277 17.8971 281.289 17.8457C281.372 17.4984 281.539 17.4081 282.088 17.344C282.136 17.344 282.196 17.344 282.231 17.344H286.682V16.2246H282.315C281.682 16.2246 281.348 16.2635 281.05 16.3665C280.131 16.675 279.726 17.1638 279.726 18.0255V19.0035C279.726 19.762 280.513 20.4051 281.849 20.5599C281.993 20.5722 282.148 20.5722 282.303 20.5722H283.914C283.973 20.5722 284.033 20.5722 284.081 20.5852C284.57 20.637 284.785 20.7271 284.928 20.9197C285.023 21.0227 285.047 21.1128 285.047 21.2289V22.2063C285.047 22.3218 284.976 22.476 284.832 22.6051C284.689 22.7335 284.463 22.8236 284.164 22.8365C284.105 22.8365 284.069 22.8494 284.009 22.8494H279.702L279.702 23.9685ZM296.335 22.0264C296.335 23.1711 297.135 23.8141 298.733 23.9432C298.889 23.9562 299.032 23.9685 299.187 23.9685H303.244V22.8495H299.151C298.244 22.8495 297.898 22.6052 297.898 22.0133V16.2247H296.335V22.0264ZM287.613 22.0775C287.613 23.0038 288.102 23.5698 289.092 23.866C289.414 23.956 289.725 23.9943 289.999 23.9943H291.669L292.922 23.9172L294.163 25.1262H295.965L294.438 23.6342C295.082 23.3384 295.356 22.901 295.356 22.0776V18.0904C295.356 17.074 294.7 16.4564 293.4 16.2638C293.244 16.2508 293.113 16.2379 292.958 16.2379H289.999C289.868 16.2379 289.724 16.2508 289.581 16.2638C288.281 16.4564 287.612 17.074 287.612 18.0904V22.0776H287.613V22.0775ZM289.295 21.9875V18.1927C289.295 17.6786 289.749 17.3565 290.441 17.3565H292.791C293.4 17.3565 293.805 17.6009 293.889 18.0385C293.901 18.0903 293.901 18.1414 293.901 18.1928V22.0133C293.901 22.0647 293.901 22.1294 293.889 22.1806C293.841 22.4121 293.71 22.5924 293.495 22.7207L292.362 21.6147H290.56L291.849 22.8755H290.441C289.82 22.8755 289.414 22.6182 289.331 22.1547C289.319 22.0905 289.295 22.0393 289.295 21.9875Z" fill="#6B6B6B" fill-opacity="0.55"/>
<path d="M345.823 13.1578C345.823 13.8375 345.578 14.4894 345.141 14.9701C344.705 15.4508 344.112 15.721 343.495 15.7214C342.877 15.7214 342.285 15.4513 341.848 14.9705C341.411 14.4898 341.166 13.8377 341.166 13.1578C341.166 12.4781 341.411 11.8262 341.847 11.3455C342.284 10.8648 342.876 10.5946 343.494 10.5943C344.111 10.5943 344.704 10.8644 345.141 11.3451C345.578 11.8259 345.823 12.4779 345.823 13.1578ZM348.581 0.901886C347.179 0.901886 345.345 2.00251 343.49 3.90797C341.635 2.01283 339.8 0.924816 338.399 0.924816C337.972 0.924816 337.583 1.03144 337.247 1.24354C335.815 2.1527 335.494 4.98567 336.233 8.54092C333.063 9.61861 331 11.3418 331 13.1578C331 14.9807 333.073 16.7085 336.253 17.7781C335.52 21.3472 335.847 24.1847 337.282 25.0927C337.616 25.3071 338.001 25.408 338.43 25.408C339.831 25.408 341.667 24.3074 343.522 22.3996C345.376 24.2959 347.211 25.3839 348.613 25.3839C349.04 25.3839 349.428 25.2807 349.765 25.0686C351.196 24.1606 351.518 21.3277 350.778 17.7713C353.937 16.7027 356 14.9761 356 13.1578C356 11.3349 353.927 9.60715 350.747 8.53518C351.48 4.96961 351.153 2.12977 349.718 1.22061C349.386 1.00966 349.001 0.903032 348.58 0.901886H348.581ZM348.576 2.15155V2.15843C348.81 2.15843 348.999 2.20888 349.157 2.30404C349.851 2.74199 350.152 4.40784 349.918 6.55062C349.861 7.078 349.77 7.63405 349.657 8.20156C348.657 7.93099 347.568 7.72347 346.421 7.58933C345.733 6.55176 345.02 5.60935 344.301 4.78388C345.959 3.08709 347.517 2.15614 348.577 2.1527L348.576 2.15155ZM338.399 2.17448C339.453 2.17448 341.018 3.10084 342.68 4.78847C341.966 5.61394 341.253 6.55062 340.576 7.58819C339.423 7.72233 338.332 7.92984 337.333 8.205C337.217 7.64322 337.13 7.09978 337.069 6.57699C336.829 4.43535 337.125 2.77066 337.812 2.32697C338.01 2.22378 338.229 2.18136 338.399 2.17563V2.17448ZM343.484 5.67126C343.958 6.20782 344.432 6.80858 344.901 7.46437C344.443 7.44144 343.974 7.42539 343.5 7.42539C343.021 7.42539 342.547 7.43685 342.083 7.46437C342.542 6.80858 343.016 6.20782 343.484 5.67012V5.67126ZM343.5 8.68193C344.271 8.68193 345.039 8.72091 345.794 8.78856C346.217 9.45581 346.629 10.1678 347.026 10.921C347.414 11.6548 347.766 12.4 348.086 13.1521C347.766 13.903 347.414 14.654 347.031 15.3877C346.635 16.1444 346.226 16.8644 345.802 17.5317C345.044 17.6039 344.275 17.644 343.5 17.644C342.729 17.644 341.961 17.6039 341.206 17.5374C340.783 16.8701 340.371 16.157 339.974 15.4049C339.586 14.6712 339.234 13.926 338.914 13.1739C339.229 12.4206 339.586 11.6685 339.969 10.9336C340.365 10.177 340.774 9.45925 341.198 8.792C341.956 8.71862 342.725 8.67964 343.5 8.67964V8.68193ZM339.714 8.97314C339.464 9.40537 339.214 9.84791 338.98 10.3031C338.746 10.7502 338.527 11.1996 338.319 11.649C338.043 10.8969 337.808 10.1471 337.615 9.41683C338.281 9.24486 338.984 9.09237 339.714 8.97429V8.97314ZM347.276 8.97314C348 9.09123 348.698 9.23683 349.366 9.41683C349.178 10.1414 348.944 10.8866 348.678 11.633C348.47 11.1859 348.251 10.7353 348.011 10.287C347.777 9.83759 347.527 9.39963 347.277 8.97314H347.276ZM350.467 9.74702C350.971 9.91899 351.45 10.1105 351.899 10.318C353.703 11.1664 354.87 12.2762 354.87 13.1567C354.865 14.0372 353.698 15.1515 351.894 15.9942C351.456 16.2006 350.977 16.3863 350.482 16.5594C350.191 15.4611 349.809 14.3169 349.336 13.1429C349.805 11.9769 350.18 10.8385 350.467 9.74473V9.74702ZM336.514 9.7516C336.803 10.8522 337.185 11.9953 337.659 13.1681C337.191 14.3341 336.814 15.4726 336.528 16.5663C336.024 16.3943 335.545 16.2017 335.101 15.9931C333.297 15.1481 332.13 14.0372 332.13 13.1567C332.13 12.2762 333.297 11.1595 335.101 10.318C335.539 10.1116 336.018 9.92587 336.514 9.7516ZM348.678 14.6586C348.954 15.4118 349.189 16.1627 349.382 16.8919C348.716 17.0719 348.011 17.2244 347.282 17.339C347.532 16.9091 347.782 16.4654 348.017 16.0114C348.251 15.5643 348.47 15.108 348.679 14.6586H348.678ZM338.319 14.6815C338.527 15.1309 338.746 15.5792 338.985 16.0286C339.225 16.4757 339.47 16.9137 339.72 17.339C338.996 17.2221 338.298 17.0754 337.63 16.8965C337.818 16.1742 338.053 15.4267 338.318 14.6803L338.319 14.6815ZM349.667 18.106C349.783 18.6713 349.875 19.2158 349.931 19.7375C350.171 21.8791 349.875 23.5438 349.187 23.9887C349.034 24.0918 348.835 24.1354 348.601 24.1354C347.547 24.1354 345.982 23.2102 344.32 21.5214C345.034 20.696 345.747 19.7604 346.424 18.724C347.577 18.5887 348.668 18.3801 349.667 18.1049V18.106ZM337.344 18.1175C338.344 18.3858 339.433 18.5933 340.58 18.7274C341.268 19.765 341.981 20.7074 342.7 21.5317C341.039 23.232 339.479 24.1629 338.419 24.1629C338.19 24.1572 337.996 24.1056 337.843 24.0116C337.149 23.5759 336.848 21.9089 337.082 19.7662C337.139 19.2388 337.23 18.6839 337.343 18.1175H337.344ZM342.094 18.8513C342.552 18.8742 343.021 18.8902 343.495 18.8902C343.974 18.8902 344.448 18.8788 344.911 18.8513C344.453 19.507 343.979 20.1067 343.51 20.6455C343.036 20.1067 342.562 19.507 342.094 18.8513Z" fill="#6B6B6B" fill-opacity="0.55"/>
<path d="M400 3.41725C410.177 3.41725 418.002 8.05791 418.002 13.1549C418.002 18.2519 410.171 22.8926 400 22.8926C389.823 22.8926 381.997 18.2519 381.997 13.1549C381.997 8.05791 389.829 3.41725 400 3.41725ZM400 2.33743C389.508 2.33743 381 7.17735 381 13.1549C381 19.1325 389.508 23.9724 400 23.9724C410.492 23.9724 419 19.1325 419 13.1549C419 7.17735 410.492 2.33743 400 2.33743ZM393.956 12.2872C393.487 14.8904 391.83 14.6204 389.793 14.6204L390.607 10.0826C392.863 10.0826 394.395 9.81905 393.956 12.2872ZM386.783 19.2161H388.962L389.479 16.3365C391.919 16.3365 393.433 16.5294 394.834 15.1089C396.384 13.5663 396.788 10.8217 395.683 9.44626C395.108 8.72637 394.181 8.37286 392.922 8.37286H388.725L386.783 19.2161ZM397.809 5.48691H399.976L399.46 8.36643C401.33 8.36643 403.064 8.2186 403.901 9.05418C404.78 9.92832 404.358 11.0467 403.408 16.3237H401.211C402.126 11.2202 402.298 10.796 401.965 10.4104C401.645 10.0376 400.914 10.1147 399.151 10.1147L398.035 16.3237H395.867L397.809 5.48691ZM410.984 12.2872C410.509 14.9289 408.805 14.6204 406.822 14.6204L407.636 10.0826C409.904 10.0826 411.424 9.81905 410.984 12.2872ZM403.812 19.2161H405.997L406.513 16.3365C409.078 16.3365 410.498 16.4972 411.869 15.1089C413.419 13.5663 413.823 10.8217 412.718 9.44626C412.142 8.72637 411.216 8.37286 409.957 8.37286H405.759L403.812 19.2161Z" fill="#6B6B6B" fill-opacity="0.55"/>
<path d="M453.071 7.92081C450.392 7.92081 448.594 9.69746 448.594 13.1448V15.6025C448.864 15.4505 449.163 15.3695 449.467 15.3658C449.771 15.3658 450.071 15.445 450.344 15.5969V13.1331C450.344 10.8978 451.428 9.74939 453.079 9.74939C454.73 9.74939 455.799 10.8978 455.799 13.1331V18.5046H457.544V13.1331C457.549 9.66588 455.751 7.92081 453.071 7.92081ZM458.498 13.3438C458.498 10.208 460.525 7.90912 463.379 7.90912C466.233 7.90912 468.224 10.2167 468.224 13.3438V14.0738H460.332C460.585 15.914 461.801 16.9382 463.371 16.9382C464.547 16.9382 465.372 16.5198 465.904 15.6228H467.829C467.132 17.544 465.481 18.7785 463.371 18.7785C460.517 18.7785 458.498 16.4796 458.498 13.3438ZM466.387 12.2997C466.038 10.6468 464.848 9.74939 463.379 9.74939C461.91 9.74939 460.737 10.6697 460.388 12.2997H466.387ZM469.156 13.3438C469.156 10.2111 471.182 7.91215 474.036 7.91215C476.89 7.91215 478.916 10.2197 478.916 13.3438C478.916 16.4679 476.89 18.7785 474.036 18.7785C471.182 18.7785 469.156 16.4796 469.156 13.3438ZM477.156 13.3438C477.156 11.2552 475.908 9.74939 474.036 9.74939C472.164 9.74939 470.918 11.2552 470.918 13.3438C470.918 15.4324 472.164 16.9382 474.033 16.9382C475.902 16.9382 477.156 15.435 477.156 13.3438ZM488.885 20.5612H489.087C490.206 20.5612 490.627 19.9844 490.627 18.5418V8.25528H492.372V18.4094C492.372 20.9593 491.49 22.2747 489.252 22.2747H488.885V20.5612ZM488.013 19.4998H486.268V17.0507H481.849C481.444 17.0663 481.043 16.9546 480.694 16.7288C480.34 16.4985 480.051 16.1657 479.858 15.7669C479.699 15.3868 479.638 14.9665 479.68 14.551C479.721 14.1372 479.865 13.7436 480.097 13.413L484.062 7.48508C484.332 7.06751 484.716 6.75479 485.159 6.59243C485.597 6.4336 486.07 6.43634 486.507 6.60022C486.948 6.76754 487.33 7.08447 487.596 7.50499C487.867 7.93396 488.013 8.44319 488.013 8.96491V15.2879H489.323V17.0507H488.013V19.4998ZM481.547 14.4978C481.505 14.5677 481.478 14.6478 481.47 14.7313C481.461 14.8149 481.471 14.8994 481.499 14.9777C481.521 15.0382 481.553 15.0936 481.594 15.1399C481.634 15.1863 481.682 15.2231 481.736 15.2482C481.789 15.2732 481.847 15.2858 481.905 15.2853H486.268V8.91601C486.272 8.80932 486.244 8.70416 486.189 8.61572C486.136 8.5291 486.058 8.46428 485.967 8.43139C485.915 8.41458 485.861 8.40584 485.807 8.40543C485.739 8.40543 485.672 8.42447 485.612 8.46125C485.551 8.49842 485.5 8.5515 485.463 8.61572L481.548 14.4978H481.547ZM491.508 4.03519C491.211 4.03516 490.921 4.13484 490.677 4.32077C490.429 4.51056 490.237 4.77581 490.126 5.08361C490.012 5.39581 489.982 5.73699 490.04 6.06713C490.096 6.39496 490.238 6.69797 490.448 6.93945C490.657 7.17743 490.923 7.34013 491.213 7.4059C491.503 7.47191 491.805 7.43836 492.077 7.30984C492.353 7.17851 492.586 6.96003 492.748 6.68243C492.913 6.40007 493 6.07199 493 5.73698C493.001 5.28962 492.845 4.85893 492.563 4.53452C492.427 4.37781 492.264 4.25278 492.082 4.16697C491.901 4.08116 491.706 4.03633 491.508 4.03519Z" fill="#6B6B6B" fill-opacity="0.55"/>
<path d="M449.293 15.9233C448.98 15.9237 448.675 16.0428 448.426 16.2623L446.839 15.0109C446.874 14.8647 446.892 14.7134 446.893 14.5617C446.897 14.2335 446.815 13.9109 446.658 13.6324C446.505 13.3588 446.28 13.1423 446.015 13.0108C445.753 12.8818 445.462 12.8457 445.18 12.9074C444.897 12.9704 444.638 13.1273 444.437 13.3574C444.232 13.5922 444.093 13.8878 444.037 14.2083C443.98 14.5312 444.007 14.8655 444.115 15.172C444.223 15.4771 444.408 15.7385 444.645 15.9229C444.882 16.1068 445.162 16.2055 445.448 16.2059C445.761 16.2059 446.066 16.0873 446.315 15.8669L447.897 17.1268C447.825 17.422 447.825 17.733 447.897 18.0281L446.31 19.2795C446.065 19.0618 445.761 18.9423 445.448 18.9405C445.16 18.9405 444.88 19.0381 444.644 19.2202C444.404 19.4061 444.218 19.6663 444.11 19.9681C444.001 20.2741 443.972 20.6084 444.028 20.9318C444.082 21.2529 444.22 21.5497 444.423 21.7861C444.626 22.0192 444.883 22.1781 445.164 22.2425C445.445 22.3066 445.737 22.2732 446 22.1467C446.266 22.0179 446.492 21.8037 446.648 21.5318C446.806 21.2572 446.891 20.9343 446.89 20.6046C446.89 20.455 446.873 20.3055 446.839 20.161L448.426 18.9096C448.675 19.1291 448.98 19.2486 449.293 19.2486C449.661 19.2167 450.003 19.0278 450.248 18.7218C450.498 18.4088 450.636 18.0046 450.635 17.5862C450.635 17.1645 450.497 16.7585 450.248 16.4505C450.003 16.1443 449.661 15.9553 449.293 15.9233Z" fill="#6B6B6B" fill-opacity="0.55"/>
</svg>
