<svg width="45" height="45" viewBox="0 0 45 45" fill="none" xmlns="http://www.w3.org/2000/svg">
<g clip-path="url(#clip0_501_34)">
<path d="M41.0951 23.3652C41.0951 17.8151 36.213 13.5219 30.6687 14.2715C30.7732 13.1833 30.2473 11.9658 29.2768 11.2774C29.3617 11.065 29.4097 10.834 29.4097 10.5917V5.53119C29.4097 3.9431 28.0322 2.78612 26.626 2.89466C26.3475 2.91619 26.1101 2.75316 26.0621 2.50707C25.7322 0.820103 24.6698 0 22.8142 0H21.0084C20.6443 0 20.3492 0.295135 20.3492 0.659176C20.3492 1.02322 20.6443 1.31835 21.0084 1.31835H22.8142C24.3584 1.31835 24.6197 2.00029 24.7682 2.76001C24.9438 3.6586 25.7857 4.28148 26.727 4.20915C27.3918 4.15729 28.0913 4.73569 28.0913 5.53119V10.5918C28.0913 11.6273 25.9318 11.0988 25.9318 9.50611C25.9318 9.14892 25.6898 8.83885 25.3432 8.75192C24.997 8.66509 24.6382 8.82425 24.4699 9.13873C23.8137 10.3661 22.5429 11.1286 21.1534 11.1286C20.3493 11.1286 14.4362 11.1286 13.6066 11.1286C12.9655 11.1286 12.4053 10.607 12.4053 9.92728V5.07785C12.4053 3.00488 14.0918 1.31835 16.1648 1.31835H17.9321C18.2963 1.31835 18.5913 1.02322 18.5913 0.659176C18.5913 0.295135 18.2963 0 17.9321 0H16.1648C13.3649 0 11.0869 2.27794 11.0869 5.07785V9.92728C11.0869 10.6075 11.3583 11.2251 11.7979 11.6789C11.1788 12.2969 10.7892 13.1591 10.7892 14.0179C10.7892 15.5977 12.157 16.8879 13.7784 17.0883C14.0016 19.0027 15.0109 20.7408 16.6028 21.8769V23.5744C16.5641 23.5952 15.2674 24.095 15.2265 24.1109H11.3731C10.0303 24.1109 8.93783 25.2034 8.93783 26.5462V26.5489L7.75685 27.0067C7.75263 27.0084 7.7485 27.01 7.74428 27.0117C5.89507 27.7727 3.9048 29.9535 3.9048 32.9432V43.1975C3.9048 44.1914 4.71339 45 5.70734 45H35.8402C36.8341 45 37.6427 44.1914 37.6427 43.1975V39.2742C37.6427 38.9102 37.3477 38.615 36.9836 38.615C36.6194 38.615 36.3244 38.9102 36.3244 39.2742V43.1975C36.3244 43.4645 36.1071 43.6816 35.8402 43.6816H33.9613C34.0477 43.4546 34.0954 43.2085 34.0954 42.9513V41.9213C34.0954 41.3927 33.6667 40.9627 33.1397 40.9627H32.3689C32.5228 40.6423 32.6098 40.2876 32.6098 39.9191V32.5176C33.849 32.4257 35.0388 32.0873 36.1229 31.5271C36.2567 31.9895 36.3243 32.4636 36.3243 32.9432V36.1981C36.3243 36.5621 36.6193 36.8572 36.9835 36.8572C37.3476 36.8572 37.6426 36.5621 37.6426 36.1981V32.9432C37.6426 32.2184 37.5186 31.5057 37.2774 30.8168C39.6078 29.133 41.0951 26.429 41.0951 23.3652ZM13.7293 15.7431C12.8234 15.5428 12.1076 14.8252 12.1076 14.0179C12.1076 13.4012 12.4838 12.7352 13.0119 12.3755C13.2755 12.4396 13.476 12.4471 13.7293 12.4471V15.7431ZM27.7422 12.4375C27.9653 12.4149 28.1904 12.3443 28.3666 12.2584C29.151 12.6955 29.5831 13.7938 29.2461 14.5799C28.7272 14.7369 28.2244 14.9404 27.7422 15.1871V12.4375ZM15.0477 16.2748V12.447H21.1534C22.5875 12.447 23.9577 11.8322 24.9079 10.7881C25.2178 11.4254 25.7522 11.9332 26.4066 12.2119C26.4124 12.2144 26.418 12.2172 26.4238 12.2196V16.0109C24.5719 17.4002 23.3842 19.359 22.9385 21.4573C19.4047 22.9087 15.0477 20.4746 15.0477 16.2748ZM22.7693 24.1109H17.8212C17.8879 23.956 17.9212 23.7836 17.9212 23.5941V22.6152C19.3451 23.2169 21.1212 23.3925 22.7498 22.9188C22.7305 23.3143 22.7369 23.7128 22.7693 24.1109ZM10.2563 26.5462C10.2563 25.9303 10.7573 25.4292 11.3732 25.4292H22.9729C23.8178 29.0963 26.8677 32.1198 31.2916 32.522V39.9193C31.2916 40.3807 30.9987 40.7983 30.5696 40.9629H10.9782C10.5491 40.7983 10.2563 40.3808 10.2563 39.9193C10.2563 38.2236 10.2563 26.9077 10.2563 26.5462ZM30.2285 22.4264L30.6465 23.9866C30.7381 24.3286 31.0074 24.5978 31.3491 24.6893L32.9096 25.1075C33.2512 25.1989 33.6189 25.1004 33.8693 24.8502L36.2211 22.4983C36.4573 25.9235 32.208 27.8413 29.8162 25.2554H29.8161C27.5507 22.8055 29.4806 18.7496 32.8835 19.0687L30.4856 21.4666C30.2353 21.717 30.1367 22.0849 30.2285 22.4264ZM30.1283 27.1513L27.4485 29.831C26.6597 29.2833 25.9917 28.6132 25.4523 27.8325L28.1319 25.1528C28.1376 25.1634 28.1442 25.1733 28.15 25.1839C28.6064 26.0101 29.3071 26.7011 30.1283 27.1513ZM7.45231 41.9214V42.9514C7.45231 43.2086 7.50012 43.4547 7.58643 43.6817H5.70751C5.44059 43.6817 5.22333 43.4646 5.22333 43.1975V32.9432C5.22333 30.4029 7.02499 28.7365 8.23998 28.2334L8.93783 27.9629V39.9193C8.93783 40.2878 9.02484 40.6425 9.17873 40.9629H8.40785C7.88095 40.9628 7.45231 41.3927 7.45231 41.9214ZM32.7772 42.2811V42.9513C32.7772 43.3537 32.4561 43.6811 32.0611 43.6816H9.48661C9.09172 43.6812 8.77057 43.3537 8.77057 42.9513V42.2811H32.7772ZM28.6345 30.5096L31.4894 27.6547C35.0681 28.407 38.1833 25.2418 37.4394 21.7116C37.2677 20.8972 36.2587 20.5963 35.6697 21.1852L33.0695 23.7854L31.8714 23.4644L31.5505 22.2663L34.1859 19.6307C34.7686 19.0483 34.4802 18.0526 33.6768 17.8652C30.1509 17.0425 26.8733 20.1354 27.6341 23.7862L24.7748 26.6455C22.3826 21.4221 26.2184 15.5056 31.9169 15.5056C36.2608 15.5056 39.7766 19.0208 39.7766 23.3652C39.7767 29.1263 33.7967 32.8846 28.6345 30.5096Z" fill="#EE6A3E"/>
<path d="M19.2422 34.5224H21.2544C21.6185 34.5224 21.9136 34.2272 21.9136 33.8632C21.9136 33.4991 21.6185 33.204 21.2544 33.204H19.2422C18.8781 33.204 18.583 33.4991 18.583 33.8632C18.583 34.2272 18.8781 34.5224 19.2422 34.5224Z" fill="#EE6A3E"/>
</g>
<defs>
<clipPath id="clip0_501_34">
<rect width="45" height="45" fill="white"/>
</clipPath>
</defs>
</svg>
