<svg width="28" height="27" viewBox="0 0 28 27" fill="none" xmlns="http://www.w3.org/2000/svg">
<path fill-rule="evenodd" clip-rule="evenodd" d="M3.46258e-07 2.21771C3.46258e-07 1.62953 0.246459 1.06545 0.685157 0.649553C1.12386 0.233653 1.71886 2.95651e-06 2.33927 2.95651e-06H25.6582C25.9656 -0.000473103 26.2702 0.056547 26.5544 0.167799C26.8385 0.27905 27.0968 0.442349 27.3143 0.648345C27.5318 0.854341 27.7044 1.09899 27.822 1.36828C27.9397 1.63758 28.0002 1.92623 28 2.21771V24.3248C28.0003 24.6163 27.94 24.905 27.8225 25.1744C27.705 25.4439 27.5327 25.6887 27.3153 25.8949C27.0979 26.1011 26.8398 26.2646 26.5556 26.3762C26.2715 26.4877 25.967 26.545 25.6595 26.5449H2.33927C2.03197 26.5449 1.72767 26.4875 1.44378 26.3759C1.15988 26.2644 0.901945 26.101 0.684707 25.8949C0.467469 25.6888 0.295186 25.4442 0.177701 25.175C0.0602169 24.9058 -0.000166849 24.6173 3.46258e-07 24.326V2.21771ZM11.0829 10.1208H14.8744V11.9259C15.4216 10.8882 16.8216 9.95433 18.9255 9.95433C22.9587 9.95433 23.9145 12.0212 23.9145 15.8135V22.8382H19.8329V16.6774C19.8329 14.5176 19.2856 13.299 17.8958 13.299C15.9676 13.299 15.1658 14.613 15.1658 16.6774V22.8382H11.0829V10.1208ZM4.08291 22.6729H8.16582V9.95433H4.08291V22.6717V22.6729ZM8.75 5.80609C8.7577 6.1375 8.69549 6.46704 8.56703 6.77536C8.43857 7.08367 8.24645 7.36456 8.00193 7.60153C7.75741 7.8385 7.46543 8.02678 7.14312 8.15532C6.82081 8.28386 6.47467 8.35007 6.125 8.35007C5.77533 8.35007 5.42919 8.28386 5.10688 8.15532C4.78457 8.02678 4.49258 7.8385 4.24807 7.60153C4.00355 7.36456 3.81143 7.08367 3.68297 6.77536C3.55451 6.46704 3.4923 6.1375 3.5 5.80609C3.51511 5.15556 3.79831 4.53651 4.28894 4.0815C4.77958 3.62649 5.43865 3.3717 6.125 3.3717C6.81135 3.3717 7.47042 3.62649 7.96105 4.0815C8.45169 4.53651 8.73489 5.15556 8.75 5.80609Z" fill="#6B6B6B"/>
</svg>
