<svg width="28" height="28" viewBox="0 0 28 28" fill="none" xmlns="http://www.w3.org/2000/svg">
<path d="M25.1456 4.66664C25.0396 4.65572 24.9328 4.65572 24.8267 4.66664H3.04888C2.9093 4.66879 2.77065 4.68972 2.63666 4.72886L13.8756 15.9211L25.1456 4.66664Z" fill="#6B6B6B"/>
<path d="M26.2968 5.74774L14.9723 17.0255C14.6808 17.3152 14.2866 17.4779 13.8756 17.4779C13.4647 17.4779 13.0704 17.3152 12.7789 17.0255L1.55554 5.8333C1.52104 5.96011 1.50275 6.09078 1.5011 6.22219V21.7777C1.5011 22.1903 1.66499 22.586 1.95671 22.8777C2.24844 23.1694 2.6441 23.3333 3.05666 23.3333H24.8346C25.2471 23.3333 25.6428 23.1694 25.9345 22.8777C26.2262 22.586 26.3901 22.1903 26.3901 21.7777V6.22219C26.3839 6.06014 26.3524 5.90006 26.2968 5.74774ZM4.12223 21.7777H3.04111V20.6655L8.69558 15.0577L9.79226 16.1544L4.12223 21.7777ZM24.819 21.7777H23.7301L18.0601 16.1544L19.1568 15.0577L24.8112 20.6655L24.819 21.7777Z" fill="#6B6B6B"/>
</svg>
