<svg width="45" height="45" viewBox="0 0 45 45" fill="none" xmlns="http://www.w3.org/2000/svg">
<path d="M44.25 9.75C44.6642 9.75 45 9.41418 45 9V6C45 3.92908 43.3209 2.25 41.25 2.25H3.75C1.67908 2.25 0 3.92908 0 6V30C0 32.0709 1.67908 33.75 3.75 33.75H15.9001L13.0876 38.25H10.5C8.42908 38.25 6.75 39.9291 6.75 42C6.75 42.4142 7.08582 42.75 7.5 42.75H37.5C37.9142 42.75 38.25 42.4142 38.25 42C38.25 39.9291 36.5709 38.25 34.5 38.25H31.9124L29.0999 33.75H41.25C43.3209 33.75 45 32.0709 45 30V14.25C45 13.8358 44.6642 13.5 44.25 13.5C43.8358 13.5 43.5 13.8358 43.5 14.25V26.25H9C8.58582 26.25 8.25 26.5858 8.25 27C8.25 27.4142 8.58582 27.75 9 27.75H43.5V30C43.5 31.2426 42.4926 32.25 41.25 32.25H3.75C2.50745 32.25 1.5 31.2426 1.5 30V27.75H5.00244C5.41663 27.75 5.75244 27.4142 5.75244 27C5.75244 26.5858 5.41663 26.25 5.00244 26.25H1.5V6C1.5 4.75745 2.50745 3.75 3.75 3.75H41.25C42.4926 3.75 43.5 4.75745 43.5 6V9C43.5 9.41418 43.8358 9.75 44.25 9.75ZM36.6226 41.25H8.37744C8.69531 40.3506 9.54602 39.7496 10.5 39.75H34.5C35.454 39.7496 36.3047 40.3506 36.6226 41.25ZM27.3376 33.75L30.1501 38.25H14.8499L17.6624 33.75H27.3376Z" fill="#EE6A3E"/>
<path d="M39 30C39 30.4142 38.6642 30.75 38.25 30.75C37.8358 30.75 37.5 30.4142 37.5 30C37.5 29.5858 37.8358 29.25 38.25 29.25C38.6642 29.25 39 29.5858 39 30Z" fill="#EE6A3E"/>
<path d="M36 30C36 30.4142 35.6642 30.75 35.25 30.75C34.8358 30.75 34.5 30.4142 34.5 30C34.5 29.5858 34.8358 29.25 35.25 29.25C35.6642 29.25 36 29.5858 36 30Z" fill="#EE6A3E"/>
<path d="M14.25 22.5C14.6642 22.5 15 22.1642 15 21.75V20.4899C15.2618 20.3719 15.5127 20.2313 15.75 20.0698L16.845 20.7001C17.2035 20.9037 17.6591 20.7795 17.8649 20.4225L19.3649 17.8275C19.4659 17.6554 19.4938 17.4503 19.4432 17.2577C19.3927 17.0651 19.2675 16.9003 19.095 16.7999L18 16.17C18 16.0276 18 15.8925 18 15.75C18 15.6075 18 15.4724 18 15.33L19.0877 14.7001C19.2598 14.5997 19.385 14.4349 19.4359 14.2423C19.4865 14.0497 19.4583 13.8446 19.3575 13.6725L17.8576 11.0775C17.6514 10.7205 17.1962 10.5963 16.8377 10.7999L15.75 11.4302C15.5127 11.2687 15.2618 11.1281 15 11.0101V9.75C15 9.33582 14.6642 9 14.25 9H11.25C10.8358 9 10.5 9.33582 10.5 9.75V11.0101C10.2382 11.1281 9.98731 11.2687 9.75 11.4302L8.65503 10.7999C8.29651 10.5963 7.84095 10.7205 7.63514 11.0775L6.13514 13.6725C6.03406 13.8446 6.00623 14.0497 6.05677 14.2423C6.1073 14.4349 6.23255 14.5997 6.40503 14.7001L7.49268 15.33V15.75V16.17L6.40503 16.7999C6.23255 16.9003 6.1073 17.0651 6.05677 17.2577C6.00623 17.4503 6.03406 17.6554 6.13514 17.8275L7.63514 20.4225C7.84095 20.7795 8.29651 20.9037 8.65503 20.7001L9.75 20.0698C9.98731 20.2313 10.2382 20.3719 10.5 20.4899V21.75C10.5 22.1642 10.8358 22.5 11.25 22.5C11.6642 22.5 12 22.1642 12 21.75V19.9874C11.9989 19.6699 11.7975 19.3872 11.4976 19.2825C11.0647 19.1283 10.6633 18.8969 10.3125 18.5999C10.0715 18.3926 9.72583 18.3593 9.45008 18.5175L8.57996 19.0276L7.82996 17.7224L8.70008 17.25C8.97767 17.0925 9.12488 16.7765 9.06739 16.4626C8.97767 16.0118 8.97767 15.5482 9.06739 15.0974C9.15418 14.7642 9.00257 14.4144 8.70008 14.25L7.82996 13.7476L8.57996 12.4424L9.45008 12.9525C9.72583 13.1107 10.0715 13.0778 10.3125 12.8701C10.6633 12.5731 11.0647 12.3417 11.4976 12.1875C11.7975 12.0828 11.9989 11.8 12 11.4825V10.5H13.5V11.5126C13.5011 11.8301 13.7025 12.1128 14.0024 12.2175C14.4353 12.3717 14.8367 12.6031 15.1875 12.9001C15.4285 13.1074 15.7742 13.1407 16.0499 12.9825L16.9201 12.4724L17.6701 13.7776L16.7999 14.25C16.5223 14.4075 16.3751 14.7235 16.4326 15.0374C16.5223 15.4882 16.5223 15.9518 16.4326 16.4026C16.3458 16.7358 16.4974 17.0856 16.7999 17.25L17.6701 17.7524L16.9201 19.0576L16.0499 18.5475C15.7742 18.3893 15.4285 18.4222 15.1875 18.6299C14.8367 18.9269 14.4353 19.1583 14.0024 19.3125C13.7025 19.4172 13.5011 19.7 13.5 20.0175V21.75C13.5 22.1642 13.8358 22.5 14.25 22.5Z" fill="#EE6A3E"/>
<path d="M15 15.75C15 14.5074 13.9926 13.5 12.75 13.5C11.5074 13.5 10.5 14.5074 10.5 15.75C10.5 16.9926 11.5074 18 12.75 18C13.9926 18 15 16.9926 15 15.75ZM12.75 16.5C12.3358 16.5 12 16.1642 12 15.75C12 15.3358 12.3358 15 12.75 15C13.1642 15 13.5 15.3358 13.5 15.75C13.5 16.1642 13.1642 16.5 12.75 16.5Z" fill="#EE6A3E"/>
<path d="M29.25 15.75C29.25 17.4067 30.5933 18.75 32.25 18.75C33.9067 18.75 35.25 17.4067 35.25 15.75C35.25 14.0933 33.9067 12.75 32.25 12.75C30.5933 12.75 29.25 14.0933 29.25 15.75ZM33.75 15.75C33.75 16.5784 33.0784 17.25 32.25 17.25C31.4216 17.25 30.75 16.5784 30.75 15.75C30.75 14.9216 31.4216 14.25 32.25 14.25C33.0784 14.25 33.75 14.9216 33.75 15.75Z" fill="#EE6A3E"/>
<path d="M41.1676 13.2001L38.9176 9.29993C38.8224 9.12451 38.6613 8.99451 38.4697 8.93811C38.2786 8.88171 38.0724 8.90405 37.8973 9L36 10.1323C35.7587 9.97522 35.5082 9.8324 35.25 9.70496V7.5C35.25 7.08582 34.9142 6.75 34.5 6.75H30C29.5858 6.75 29.25 7.08582 29.25 7.5V9.70496C28.9918 9.8324 28.7413 9.97522 28.5 10.1323L26.6027 9C26.246 8.79529 25.7911 8.91577 25.5824 9.2699L23.3324 13.17C23.2141 13.3462 23.176 13.5641 23.2277 13.7699C23.2789 13.9757 23.4152 14.1504 23.6027 14.25L25.5 15.33V15.75V16.17L23.6027 17.25C23.2482 17.4584 23.1277 17.9136 23.3324 18.2699L25.5824 22.17C25.7911 22.5245 26.246 22.6447 26.6027 22.4399L28.5 21.3677C28.7413 21.5248 28.9918 21.6676 29.25 21.795V24C29.25 24.4142 29.5858 24.75 30 24.75H34.5C34.9142 24.75 35.25 24.4142 35.25 24V21.795C35.5082 21.6676 35.7587 21.5248 36 21.3677L37.8973 22.5C38.254 22.7047 38.7089 22.5842 38.9176 22.2301C39.0183 22.058 39.0465 21.8529 38.996 21.6603C38.9451 21.4673 38.8198 21.3029 38.6473 21.2025L36.3149 19.86C36.0505 19.704 35.718 19.7249 35.4749 19.9124C35.0936 20.2222 34.6692 20.4749 34.2151 20.6624C33.9349 20.7777 33.7515 21.0498 33.75 21.3527V23.25H30.75V21.3076C30.7485 21.0048 30.5651 20.7327 30.2849 20.6177C29.8308 20.4298 29.4064 20.1771 29.0252 19.8677C28.782 19.6798 28.4495 19.6589 28.1851 19.8149L26.5049 20.7825L25.0049 18.1875L26.6851 17.25C26.9513 17.0999 27.0996 16.8032 27.0601 16.5C26.9799 16.0184 26.9799 15.5266 27.0601 15.045C27.0996 14.7418 26.9513 14.4452 26.6851 14.295L25.0049 13.3198L26.5049 10.7249L28.1851 11.6924C28.4495 11.8484 28.782 11.8279 29.0252 11.64C29.4064 11.3302 29.8308 11.0779 30.2849 10.89C30.5651 10.775 30.7485 10.5029 30.75 10.2001V8.25H33.75V10.1924C33.7515 10.4952 33.9349 10.7673 34.2151 10.8823C34.6692 11.0702 35.0936 11.3229 35.4749 11.6323C35.718 11.8202 36.0505 11.8411 36.3149 11.6851L37.9951 10.7175L39.4951 13.3125L37.8149 14.25C37.5487 14.4001 37.4004 14.6968 37.4399 15C37.5201 15.4816 37.5201 15.9734 37.4399 16.455C37.4004 16.7582 37.5487 17.0548 37.8149 17.205L40.1473 18.5552C40.5037 18.7412 40.9435 18.6138 41.1445 18.2659C41.3456 17.918 41.2368 17.473 40.8973 17.2573L39 16.17C39 16.0276 39 15.8851 39 15.75C39 15.6149 39 15.4724 39 15.33L40.8973 14.25C41.076 14.1497 41.2061 13.9808 41.257 13.7827C41.3079 13.5842 41.2756 13.374 41.1676 13.2001Z" fill="#EE6A3E"/>
<path d="M17.25 8.12989C17.3877 8.12916 17.5228 8.08998 17.64 8.01747C19.7032 6.73793 22.2176 6.4098 24.5402 7.11769C24.735 7.18251 24.9481 7.16493 25.1294 7.06861C25.311 6.97193 25.4447 6.80531 25.5 6.60755C25.6161 6.20985 25.3876 5.79347 24.9899 5.67738C22.2521 4.84718 19.2891 5.23792 16.86 6.75001C16.6893 6.85401 16.5674 7.02174 16.5209 7.21583C16.4744 7.41029 16.5073 7.615 16.6124 7.78492C16.7516 8.00172 16.9922 8.13209 17.25 8.12989Z" fill="#EE6A3E"/>
<path d="M16.86 23.25C18.4398 24.2205 20.2559 24.7394 22.11 24.75C22.7937 24.7478 23.4748 24.6724 24.1424 24.5252C24.4208 24.486 24.6537 24.2948 24.7463 24.0293C24.839 23.7642 24.7756 23.4694 24.5819 23.2658C24.3882 23.0618 24.097 22.9834 23.8275 23.0625C23.2683 23.1852 22.6974 23.2482 22.125 23.25C20.5367 23.2522 18.9789 22.8135 17.625 21.9825C17.2727 21.7687 16.8138 21.8793 16.5974 22.2301C16.3912 22.5846 16.5084 23.0391 16.86 23.25Z" fill="#EE6A3E"/>
</svg>
