<svg width="27" height="27" viewBox="0 0 27 27" fill="none" xmlns="http://www.w3.org/2000/svg">
<path d="M11.415 15.48C12.9806 17.0682 14.875 18.2944 16.965 19.0725L19.7925 16.8225C19.8763 16.7648 19.9757 16.7338 20.0775 16.7338C20.1793 16.7338 20.2787 16.7648 20.3625 16.8225L25.6125 20.205C25.8118 20.3248 25.9805 20.4893 26.1053 20.6856C26.2301 20.8818 26.3076 21.1044 26.3316 21.3357C26.3556 21.567 26.3255 21.8008 26.2436 22.0184C26.1618 22.2361 26.0305 22.4318 25.86 22.59L23.4 25.02C23.0477 25.3681 22.6147 25.6235 22.1397 25.7636C21.6646 25.9036 21.1623 25.9238 20.6775 25.8225C15.8417 24.8237 11.3843 22.4846 7.815 19.0725C4.32486 15.6264 1.9097 11.2416 0.862496 6.44999C0.759046 5.97272 0.780637 5.47682 0.925178 5.01034C1.06972 4.54387 1.33231 4.12264 1.6875 3.78749L4.2375 1.32749C4.3953 1.16533 4.58774 1.04097 4.80041 0.963721C5.01308 0.886473 5.24047 0.858339 5.46555 0.881424C5.69064 0.90451 5.90759 0.978217 6.10015 1.09703C6.29271 1.21584 6.4559 1.37667 6.5775 1.56749L10.0725 6.74999C10.1328 6.83137 10.1653 6.92996 10.1653 7.03124C10.1653 7.13251 10.1328 7.23111 10.0725 7.31249L7.77 10.08C8.56918 12.1282 9.8143 13.9728 11.415 15.48Z" fill="#6B6B6B"/>
</svg>
