<svg width="45" height="45" viewBox="0 0 45 45" fill="none" xmlns="http://www.w3.org/2000/svg">
<g clip-path="url(#clip0_501_50)">
<path d="M6.11009 8.25967C6.61872 8.25967 7.03104 7.84734 7.03104 7.33871C7.03104 6.83008 6.61872 6.41776 6.11009 6.41776C5.60146 6.41776 5.18913 6.83008 5.18913 7.33871C5.18913 7.84734 5.60146 8.25967 6.11009 8.25967Z" fill="#EE6A3E"/>
<path d="M9.93861 8.25967C10.4472 8.25967 10.8596 7.84734 10.8596 7.33871C10.8596 6.83008 10.4472 6.41776 9.93861 6.41776C9.42998 6.41776 9.01765 6.83008 9.01765 7.33871C9.01765 7.84734 9.42998 8.25967 9.93861 8.25967Z" fill="#EE6A3E"/>
<path d="M13.767 8.25967C14.2756 8.25967 14.688 7.84734 14.688 7.33871C14.688 6.83008 14.2756 6.41776 13.767 6.41776C13.2584 6.41776 12.8461 6.83008 12.8461 7.33871C12.8461 7.84734 13.2584 8.25967 13.767 8.25967Z" fill="#EE6A3E"/>
<path d="M7.89914 12.7387C7.90679 12.9284 7.99572 13.1055 8.14321 13.225L9.39399 14.2375C9.51616 14.3363 9.66287 14.3844 9.8086 14.3844C10.0008 14.3844 10.1914 14.3008 10.3217 14.1398C10.5509 13.8566 10.5072 13.4412 10.224 13.212L9.55688 12.672L10.2639 11.9987C10.5278 11.7474 10.5379 11.3299 10.2867 11.0661C10.0354 10.8022 9.61783 10.7921 9.35406 11.0433L8.10328 12.2345C7.9659 12.3655 7.89149 12.5492 7.89914 12.7387Z" fill="#EE6A3E"/>
<path d="M15.749 11.0434C15.4852 10.7922 15.0678 10.8024 14.8164 11.0661C14.5652 11.33 14.5753 11.7475 14.8392 11.9988L15.5462 12.6721L14.8791 13.2121C14.5959 13.4413 14.5522 13.8567 14.7814 14.1398C14.9117 14.3009 15.1022 14.3845 15.2945 14.3845C15.4402 14.3845 15.587 14.3364 15.7091 14.2376L16.9599 13.225C17.1074 13.1056 17.1963 12.9285 17.204 12.7388C17.2115 12.5492 17.1372 12.3655 16.9997 12.2346L15.749 11.0434Z" fill="#EE6A3E"/>
<path d="M12.493 11.2073L11.3018 13.4111C11.1285 13.7316 11.2479 14.1318 11.5684 14.305C11.6681 14.359 11.7755 14.3845 11.8815 14.3845C12.116 14.3845 12.3431 14.2592 12.4623 14.0385L13.6536 11.8347C13.8268 11.5142 13.7075 11.114 13.387 10.9407C13.0662 10.7674 12.6661 10.8868 12.493 11.2073Z" fill="#EE6A3E"/>
<path d="M36.4418 16.9331C36.8061 16.9331 37.1014 16.6378 37.1014 16.2735C37.1014 15.9092 36.8061 15.6138 36.4418 15.6138H30.9355C30.5711 15.6138 30.2758 15.9092 30.2758 16.2735C30.2758 16.6378 30.5711 16.9331 30.9355 16.9331H36.4418Z" fill="#EE6A3E"/>
<path d="M28.2407 15.6138H14.8717C14.5074 15.6138 14.2121 15.9092 14.2121 16.2735C14.2121 16.6378 14.5074 16.9331 14.8717 16.9331H28.2407C28.6051 16.9331 28.9004 16.6378 28.9004 16.2735C28.9004 15.9092 28.605 15.6138 28.2407 15.6138Z" fill="#EE6A3E"/>
<path d="M8.55827 16.9331H12.138C12.5023 16.9331 12.7977 16.6378 12.7977 16.2735C12.7977 15.9092 12.5023 15.6138 12.138 15.6138H8.55827C8.19397 15.6138 7.89862 15.9092 7.89862 16.2735C7.89862 16.6378 8.19397 16.9331 8.55827 16.9331Z" fill="#EE6A3E"/>
<path d="M19.7315 19.1415C19.7315 19.5058 20.0269 19.8011 20.3912 19.8011H36.4417C36.8061 19.8011 37.1014 19.5058 37.1014 19.1415C37.1014 18.7772 36.8061 18.4818 36.4417 18.4818H20.3912C20.0269 18.4818 19.7315 18.7772 19.7315 19.1415Z" fill="#EE6A3E"/>
<path d="M8.55827 19.8011H17.6966C18.0609 19.8011 18.3562 19.5058 18.3562 19.1415C18.3562 18.7772 18.0609 18.4818 17.6966 18.4818H8.55827C8.19397 18.4818 7.89862 18.7772 7.89862 19.1415C7.89862 19.5058 8.19397 19.8011 8.55827 19.8011Z" fill="#EE6A3E"/>
<path d="M8.55827 22.6691H36.4417C36.8061 22.6691 37.1014 22.3737 37.1014 22.0094C37.1014 21.6451 36.8061 21.3498 36.4417 21.3498H8.55827C8.19397 21.3498 7.89862 21.6451 7.89862 22.0094C7.89862 22.3737 8.19397 22.6691 8.55827 22.6691Z" fill="#EE6A3E"/>
<path d="M8.55827 25.537H14.8717C15.236 25.537 15.5314 25.2417 15.5314 24.8774C15.5314 24.5131 15.236 24.2177 14.8717 24.2177H8.55827C8.19397 24.2177 7.89862 24.5131 7.89862 24.8774C7.89862 25.2417 8.19397 25.537 8.55827 25.537Z" fill="#EE6A3E"/>
<path d="M17.5012 24.2177C17.1369 24.2177 16.8416 24.5131 16.8416 24.8774C16.8416 25.2417 17.1369 25.537 17.5012 25.537H21.5562C21.9205 25.537 22.2159 25.2417 22.2159 24.8774C22.2159 24.5131 21.9205 24.2177 21.5562 24.2177H17.5012Z" fill="#EE6A3E"/>
<path d="M42.3917 3.19128H2.60814C1.17002 3.19128 -1.52588e-05 4.36123 -1.52588e-05 5.79944V11.0113C-1.52588e-05 11.3756 0.295331 11.6709 0.659632 11.6709C1.02393 11.6709 1.31928 11.3756 1.31928 11.0113V5.79944C1.31928 5.08869 1.89748 4.51058 2.60814 4.51058H42.3917C43.1024 4.51058 43.6806 5.08878 43.6806 5.79944V27.6447H36.8254C36.461 27.6447 36.1657 27.94 36.1657 28.3043C36.1657 28.6686 36.461 28.964 36.8254 28.964H43.6806V31.257C43.6806 31.9677 43.1024 32.5458 42.3917 32.5458H2.60814C1.89739 32.5458 1.31928 31.9676 1.31928 31.257V28.964H33.758C34.1224 28.964 34.4177 28.6686 34.4177 28.3043C34.4177 27.94 34.1224 27.6447 33.758 27.6447H1.31928V14.0676C1.31928 13.7033 1.02393 13.408 0.659632 13.408C0.295331 13.408 -1.52588e-05 13.7033 -1.52588e-05 14.0676V28.3042V31.2569C-1.52588e-05 32.6951 1.17002 33.8651 2.60814 33.8651H15.8996C15.8751 34.4616 15.7388 35.5396 15.1955 37.0906H11.9477C10.8772 37.0906 10.0063 37.9616 10.0063 39.032V40.5521C10.0063 41.2449 10.5699 41.8086 11.2627 41.8086H15.4859C15.8502 41.8086 16.1455 41.5133 16.1455 41.149C16.1455 40.7847 15.8502 40.4893 15.4859 40.4893H11.3256V39.032C11.3256 38.689 11.6047 38.4099 11.9477 38.4099H15.5744C15.6013 38.4133 15.6284 38.415 15.6557 38.415H29.3444C29.3717 38.415 29.3988 38.4133 29.4256 38.4099H33.0523C33.3953 38.4099 33.6744 38.689 33.6744 39.032V40.4893H18.5714C18.2071 40.4893 17.9118 40.7847 17.9118 41.149C17.9118 41.5133 18.2071 41.8086 18.5714 41.8086H33.7373C34.4301 41.8086 34.9937 41.2449 34.9937 40.5521V39.032C34.9937 37.9616 34.1228 37.0906 33.0523 37.0906H29.8045C29.2612 35.5398 29.125 34.4616 29.1004 33.8651H42.3917C43.83 33.8651 44.9999 32.695 44.9999 31.2569V28.3042V5.79944C45 4.36123 43.83 3.19128 42.3917 3.19128ZM16.5877 37.0907C17.0664 35.605 17.1969 34.5256 17.2192 33.8651H27.7787C27.7838 34.023 27.7952 34.2046 27.816 34.4098C27.8991 35.2256 28.099 36.1243 28.4117 37.0907H16.5877Z" fill="#EE6A3E"/>
<path d="M20.9892 30.0952C20.6249 30.0952 20.3295 30.3906 20.3295 30.7549C20.3295 31.1192 20.6249 31.4145 20.9892 31.4145H24.0108C24.3752 31.4145 24.6705 31.1192 24.6705 30.7549C24.6705 30.3906 24.3752 30.0952 24.0108 30.0952H20.9892Z" fill="#EE6A3E"/>
</g>
<defs>
<clipPath id="clip0_501_50">
<rect width="45" height="45" fill="white"/>
</clipPath>
</defs>
</svg>
